<svg width="36" height="38" viewBox="0 0 36 38" fill="none" xmlns="http://www.w3.org/2000/svg">
<path fill-rule="evenodd" clip-rule="evenodd" d="M6.23097 0C6.73192 1.28984 7.25032 2.60161 7.76872 3.89144C8.52639 5.8262 8.99992 7.28275 9.21426 8.30277V13.9425H11.577V8.30277L14.4381 0H12.0256L10.418 5.47303L8.74072 0H6.23097ZM17.6058 14.0868C18.695 14.0868 19.5224 13.7336 20.1131 13.0251C20.5642 12.5052 20.7736 11.6717 20.7736 10.5683V6.92691C20.7736 5.82353 20.5642 5.0119 20.1131 4.49202C19.5199 3.78787 18.6925 3.43251 17.6058 3.43251C16.5391 3.43251 15.7117 3.78568 15.126 4.49202C14.6749 5.01409 14.463 5.82572 14.463 6.9291V10.5705C14.463 11.6739 14.6749 12.4855 15.126 13.0273C15.7117 13.7336 16.5391 14.0868 17.6058 14.0868ZM16.5891 6.55392C16.5891 5.59751 16.9205 5.11931 17.6059 5.11931C18.3162 5.11931 18.6228 5.59751 18.6228 6.55392V10.9236C18.6228 11.8822 18.3162 12.3801 17.6059 12.3801C16.9205 12.3801 16.5891 11.88 16.5891 10.9236V6.55392ZM22.5257 11.7583C22.5257 12.5063 22.593 13.0042 22.7126 13.3179C22.9245 13.84 23.4204 14.0879 24.1058 14.0879C24.8909 14.0879 25.6934 13.6711 26.5433 12.798V13.9431H28.6942V3.55859H26.5433V11.4863C26.0698 12.0895 25.6212 12.3812 25.1975 12.3812C24.9133 12.3812 24.7488 12.2167 24.7015 11.925C24.6766 11.8811 24.6766 11.6332 24.6766 11.1945V3.55859H22.5257V11.7583ZM30.8949 25.9102V26.8666H28.7664V25.9102C28.7664 24.9736 29.1228 24.4932 29.8307 24.4932C30.5385 24.4954 30.8949 24.9736 30.8949 25.9102ZM35.0072 19.2703C34.581 17.6251 33.0433 16.4187 31.2239 16.2322C26.8723 15.8154 22.4734 15.8154 18.0994 15.8154C13.7254 15.8154 9.32649 15.8154 4.99984 16.2322C3.16052 16.4187 1.64519 17.6251 1.19658 19.2703C0.605901 21.5999 0.580978 24.1401 0.580978 26.5531C0.580978 28.9463 0.580978 31.504 1.19658 33.8358C1.62276 35.481 3.16052 36.6875 4.9799 36.8542C9.32898 37.2908 13.7279 37.2908 18.1019 37.2908C22.4759 37.2908 26.8748 37.2908 31.2264 36.8542C33.0433 36.6875 34.5586 35.481 35.0097 33.8358C35.6004 31.5062 35.6253 28.9463 35.6253 26.5531L35.6253 26.5224C35.6228 24.1186 35.6202 21.5901 35.0072 19.2703ZM8.05538 21.3736H10.5826V19.417H3.20535V21.3736H5.69018V33.2147H8.05538V21.3736ZM16.9678 33.2135H14.8618V32.0904C14.0095 32.9437 13.2069 33.3605 12.4493 33.3605C11.7664 33.3605 11.2679 33.1104 11.0785 32.5905C10.9589 32.279 10.8891 31.7986 10.8891 31.0725V22.9365H12.9951V30.511C12.9951 30.9497 12.9951 31.1778 13.0175 31.2414C13.0674 31.531 13.2319 31.678 13.5135 31.678C13.9422 31.678 14.3908 31.3884 14.8618 30.8049V22.9387H16.9678V33.2135ZM24.7937 32.2144C24.9582 31.7779 25.0081 31.0935 25.0081 30.1349V26.035C25.0081 25.0764 24.9582 24.392 24.7937 23.9753C24.5345 23.2053 23.9414 22.8105 23.1139 22.8105C22.3338 22.8105 21.5986 23.1834 20.9132 23.9336V19.417H18.8122V33.2147H20.9132V32.2144C21.6235 32.9844 22.3587 33.3595 23.1139 33.3595C23.9414 33.3595 24.5345 32.9646 24.7937 32.2144ZM32.9984 28.4288H28.7664V30.2385C28.7664 31.1971 29.1228 31.6732 29.8556 31.6732C30.3765 31.6732 30.683 31.4253 30.8026 30.9251C30.8251 30.822 30.85 30.4053 30.85 29.655H33.0009V29.927C33.0009 30.5303 33.0009 30.9471 32.9535 31.1335C32.9037 31.5481 32.7142 31.9232 32.4575 32.2566C31.8868 32.9849 31.0145 33.36 29.9054 33.36C28.7938 33.36 27.9639 33.0069 27.3508 32.2983C26.9022 31.7982 26.6654 30.9866 26.6654 29.8832V26.2835C26.6654 25.1801 26.8798 24.3904 27.3284 23.8683C27.944 23.1598 28.7714 22.8066 29.8606 22.8066C30.9273 22.8066 31.7522 23.1598 32.3653 23.8683C32.794 24.3882 33.0058 25.1779 33.0058 26.2835V28.4288H32.9984ZM22.902 30.2777V25.8861C22.902 24.9714 22.593 24.4932 21.9799 24.4932C21.6235 24.4932 21.2696 24.6379 20.9132 24.9516V31.2143C21.2696 31.5258 21.6235 31.6706 21.9799 31.6706C22.593 31.6706 22.902 31.2144 22.902 30.2777Z" fill="white"/>
</svg>
