<svg width="43" height="31" viewBox="0 0 43 31" fill="none" xmlns="http://www.w3.org/2000/svg">
<path d="M38.2409 8.05306C38.2683 8.38429 38.2683 8.71552 38.2683 9.04895C38.2683 19.1505 29.5303 30.7919 13.562 30.7919C8.64222 30.7919 4.07132 29.5372 0.225693 27.3611C0.926031 27.4313 1.59895 27.4532 2.32422 27.4532C6.38419 27.4532 10.1177 26.2468 13.1034 24.1892C9.28523 24.119 6.0876 21.9166 4.986 18.8872C5.52185 18.9574 6.06019 19.0057 6.62096 19.0057C7.40354 19.0057 8.18363 18.9114 8.90889 18.7468C4.93117 18.0361 1.94539 14.9607 1.94539 11.2469C1.94539 11.2228 1.94539 11.1745 1.94539 11.1526C3.10182 11.7186 4.44517 12.0739 5.87077 12.1222C3.53299 10.749 2.00022 8.40622 2.00022 5.75855C2.00022 4.33929 2.43139 3.0363 3.18406 1.90001C7.45837 6.53947 13.8835 9.56883 21.0888 9.89787C20.9517 9.32973 20.872 8.73746 20.872 8.14519C20.872 3.93567 24.745 0.504883 29.5552 0.504883C32.055 0.504883 34.313 1.42619 35.9006 2.91784C37.862 2.58661 39.7412 1.94827 41.4111 1.07302C40.7656 2.84765 39.3948 4.33929 37.5929 5.28254C39.3425 5.11802 41.0347 4.69246 42.5949 4.10019C41.4111 5.61377 39.9331 6.96503 38.2409 8.05306Z" fill="white"/>
</svg>
